# xmcd
#
# Track frame offsets:
#	150
#	11177
#	23251
#	36326
#	47623
#	59910
#	73579
#	82916
#	92470
#	102849
#	111126
#	122696
#
# Disc length: 1802
#
# Revision: 1
# Processed by: cddbd v1.5.1PL0 Copyright (c) Steve Scherf et al.
# Submitted via: FreeRIP 2.90 
# Normalized: r0:TDELIM( - )
#
DISCID=9307080c
DTITLE=King Of The Road
DYEAR=2001
DGENRE=
TTITLE0=Roger Miller - King of the road
TTITLE1=Johnny Cash - I walk the line
TTITLE2=Kenny Rogers - Ruby
TTITLE3=Waylon jennings - Sally was a good old girl
TTITLE4=Billie Jo Spears - What I've got in mind
TTITLE5=Don Williams - Where do we go from here
TTITLE6=Freddy Fender - Running back
TTITLE7=George Jons - The race is on
TTITLE8=Patsy Cline - Pick me up on your way down
TTITLE9=Willie Nelson - You wouldn't cross the street to say goodbye
TTITLE10=Frankie Laine - Mule train
TTITLE11=Glen Campbell - By the time i get to phoenix
EXTD=
EXTT0=
EXTT1=
EXTT2=
EXTT3=
EXTT4=
EXTT5=
EXTT6=
EXTT7=
EXTT8=
EXTT9=
EXTT10=
EXTT11=
PLAYORDER=
